<?xml version="1.0" encoding="UTF-8" standalone="no"?><svg xmlns:svg="http://www.w3.org/2000/svg" xmlns="http://www.w3.org/2000/svg" width="256" height="256" viewBox="0 0 1024.0001 1024" version="1.1" id="ske-logo_svg"><g id="ske-logo_svg-layer" transform="translate(-85.833332,-128.16667)"><path id="ske-logo_svg-path" style="font-style:normal;font-weight:normal;font-size:3.38828px;line-height:1.25;font-family:sans-serif;letter-spacing:0px;word-spacing:0px;fill:#ab3478;fill-opacity:0.94117647;stroke:none;stroke-width:32.4982" d="m 400.17166,693.67146 c 0,0 -221.28182,310.20284 73.59199,283.96083 C 810.74796,947.64266 986.71417,850.53726 1107.7077,788.90398 1066.2198,878.96708 704.03667,1104.9897 434.41604,1140.2151 279.79081,1167.3669 129.48886,1153.758 96.489025,1041.5527 53.117889,894.08311 400.17166,693.67146 400.17166,693.67146 L 85.833332,721.02225 551.80166,565.32075 404.00595,877.17354 c 0,0 116.81843,-33.55904 252.37581,-79.08761 C 839.58431,736.5553 896.57068,679.49137 830.67347,654.41822 681.95539,597.83249 615.21465,582.03473 507.19596,546.26462 429.04329,520.38455 378.01755,505.92465 272.32273,469.23575 190.62132,440.87531 64.874945,410.92715 95.552398,323.6716 120.12789,253.76747 257.05325,201.90725 365.04667,175.32677 c 229.0467,-56.37581 666.98383,-67.02311 728.84193,-5.44564 53.8872,53.64199 -30.0373,91.00288 -233.20323,115.47699 -140.17818,16.88653 -456.67922,29.19143 -456.67922,29.19143 0,0 223.03289,-32.04583 321.66508,-45.84269 73.44716,-10.2743 338.79167,-83.08377 135.16697,-88.65485 -51.60089,-1.41056 -183.19104,12.74368 -252.17894,23.26528 -51.29062,7.82234 -179.96477,33.69728 -234.82524,73.54855 -40.82829,29.65811 37.37498,56.35635 157.24828,93.34246 l 253.12256,75.13497 c 222.91914,66.1696 304.92904,74.20288 323.50314,166.64551 16.4618,81.94022 -108.4803,162.9824 -217.5409,196.74342 -209.8327,64.95667 -342.92557,58.53082 -486.16115,68.44134 z"/></g></svg>
